<svg width="36" height="36" viewBox="0 0 36 36" fill="none" xmlns="http://www.w3.org/2000/svg">
<g id="style=light, icon=add">
<path id="Vector" d="M18 3C9.7155 3 3 9.7155 3 18C3 26.2845 9.7155 33 18 33C26.2845 33 33 26.2845 33 18C33 9.7155 26.2845 3 18 3ZM25.5 18C25.5 18.8284 24.8284 19.5 24 19.5H19.5V24C19.5 24.8284 18.8284 25.5 18 25.5V25.5C17.1716 25.5 16.5 24.8284 16.5 24V19.5H12C11.1716 19.5 10.5 18.8284 10.5 18V18C10.5 17.1716 11.1716 16.5 12 16.5H16.5V12C16.5 11.1716 17.1716 10.5 18 10.5V10.5C18.8284 10.5 19.5 11.1716 19.5 12V16.5H24C24.8284 16.5 25.5 17.1716 25.5 18V18Z" fill="#F9F9F9"/>
<path id="Vector 1" d="M18 12V24" stroke="#454242" stroke-width="3" stroke-linecap="round"/>
<path id="Vector 2" d="M24 18H12" stroke="#454242" stroke-width="3" stroke-linecap="round"/>
</g>
</svg>
