<svg width="50" height="50" viewBox="0 0 50 50" fill="none" xmlns="http://www.w3.org/2000/svg">
<path fill-rule="evenodd" clip-rule="evenodd" d="M42.3077 42.8792C43.4885 41.8387 44.2308 40.329 44.2308 38.6491V21.5357C44.231 20.6664 44.0282 19.8087 43.6381 19.0286C43.248 18.2486 42.681 17.5672 41.9808 17.0369L28.5192 6.85139C27.5104 6.08743 26.2731 5.67318 25 5.67318C23.7269 5.67318 22.4896 6.08743 21.4808 6.85139L8.01923 17.0369C7.3185 17.5676 6.75115 18.2496 6.36102 19.0303C5.97088 19.8111 5.76841 20.6695 5.76923 21.5395V38.6491C5.76721 39.3927 5.91416 40.1295 6.20169 40.8172C6.48922 41.505 6.9117 42.1302 7.44497 42.6573C7.97824 43.1844 8.61186 43.6029 9.30962 43.889C10.0074 44.175 10.7556 44.3231 11.5115 44.3245H13.4615V31.0818C13.4615 29.0748 14.272 27.1501 15.7146 25.7309C17.1571 24.3118 19.1137 23.5145 21.1538 23.5145H28.8462C30.8863 23.5145 32.8428 24.3118 34.2854 25.7309C35.728 27.1501 36.5385 29.0748 36.5385 31.0818V44.3245H38.4885C39.9538 44.317 41.2962 43.7721 42.3077 42.8792ZM50 38.6491C50 41.6595 48.7843 44.5467 46.6205 46.6754C44.4566 48.8041 41.5217 50 38.4615 50H11.5385C8.47827 50 5.54342 48.8041 3.37954 46.6754C1.21566 44.5467 0 41.6595 0 38.6491V21.5357C0.000120279 19.7977 0.405921 18.083 1.18612 16.5237C1.96632 14.9644 3.10008 13.6021 4.5 12.542L17.9615 2.35643C19.9791 0.828507 22.4538 0 25 0C27.5462 0 30.0209 0.828507 32.0385 2.35643L45.5 12.542C46.9004 13.6025 48.0345 14.9654 48.8147 16.5254C49.5949 18.0854 50.0005 19.8009 50 21.5395V38.6491ZM30.7692 31.0818C30.7692 30.5801 30.5666 30.0989 30.206 29.7441C29.8453 29.3893 29.3562 29.19 28.8462 29.19H21.1538C20.6438 29.19 20.1547 29.3893 19.794 29.7441C19.4334 30.0989 19.2308 30.5801 19.2308 31.0818V44.3245H30.7692V31.0818Z" fill="#F9F9F9"/>
</svg>
