<svg width="56" height="56" viewBox="0 0 56 56" fill="none" xmlns="http://www.w3.org/2000/svg">
<path d="M28 28V35.5V43M3.24088 24.5375C3.04277 24.9174 2.965 25.3306 3.01448 25.7404C3.06397 26.1502 3.23918 26.5438 3.52455 26.8864C3.80992 27.229 4.19662 27.5099 4.65031 27.7041C5.104 27.8984 5.61064 28 6.12523 28H49.8748C50.3894 28 50.896 27.8984 51.3497 27.7041C51.8034 27.5099 52.1901 27.229 52.4755 26.8864C52.7608 26.5438 52.936 26.1502 52.9855 25.7404C53.035 25.3306 52.9572 24.9174 52.7591 24.5375L43.1436 6.0775C42.6692 5.16626 41.8682 4.38776 40.8416 3.8401C39.815 3.29243 38.6088 3.00012 37.3749 3H18.6251C17.3916 2.99992 16.1856 3.29186 15.159 3.83906C14.1325 4.38625 13.3313 5.16423 12.8564 6.075L3.24088 24.5375ZM15.5001 48C15.5001 46.6739 16.1586 45.4021 17.3307 44.4645C18.5028 43.5268 20.0925 43 21.7501 43H34.2499C35.9075 43 37.4972 43.5268 38.6693 44.4645C39.8414 45.4021 40.4999 46.6739 40.4999 48V50.5C40.4999 51.163 40.1706 51.7989 39.5846 52.2678C38.9985 52.7366 38.2037 53 37.3749 53H18.6251C17.7963 53 17.0015 52.7366 16.4154 52.2678C15.8294 51.7989 15.5001 51.163 15.5001 50.5V48Z" stroke="#F9F9F9" stroke-width="5" stroke-linecap="round" stroke-linejoin="round"/>
</svg>
