<svg width="36" height="36" viewBox="0 0 36 36" fill="none" xmlns="http://www.w3.org/2000/svg">
<g id="style=light, icon=learn">
<path id="Vector" d="M30 33H9.75C8.35761 33 7.02226 32.4469 6.03769 31.4623C5.05312 30.4777 4.5 29.1424 4.5 27.75V7.5C4.5 6.30653 4.97411 5.16193 5.81802 4.31802C6.66193 3.47411 7.80653 3 9 3H30C30.3978 3 30.7794 3.15804 31.0607 3.43934C31.342 3.72064 31.5 4.10218 31.5 4.5V31.5C31.5 31.8978 31.342 32.2794 31.0607 32.5607C30.7794 32.842 30.3978 33 30 33ZM28.5 30V25.5H9.75C9.15326 25.5 8.58097 25.7371 8.15901 26.159C7.73705 26.581 7.5 27.1533 7.5 27.75C7.5 28.3467 7.73705 28.919 8.15901 29.341C8.58097 29.7629 9.15326 30 9.75 30H28.5Z" fill="#F9F9F9"/>
</g>
</svg>
