<svg width="36" height="36" viewBox="0 0 36 36" fill="none" xmlns="http://www.w3.org/2000/svg">
<g id="style=light, icon=memory">
<path id="Vector" d="M30 6V3C30 1.2 28.5 0 27 0H7.5C4.2 0 3 2.7 3 4.5V31.5C3 34.8 5.7 36 7.5 36H30C31.8 36 33 34.8 33 33V9C33 7.2 31.8 6 30 6ZM22.5 24H13.5C12.6 24 12 23.4 12 22.5C12 21.6 12.6 21 13.5 21H22.5C23.4 21 24 21.6 24 22.5C24 23.4 23.4 24 22.5 24ZM22.5 18H13.5C12.6 18 12 17.4 12 16.5C12 15.6 12.6 15 13.5 15H22.5C23.4 15 24 15.6 24 16.5C24 17.4 23.4 18 22.5 18ZM27 6H7.5C6.3 6 6 5.1 6 4.5C6 3.9 6.3 3 7.5 3H27V6Z" fill="#F9F9F9"/>
</g>
</svg>
