<svg width="50" height="50" viewBox="0 0 50 50" fill="none" xmlns="http://www.w3.org/2000/svg">
<path d="M25 27.2861C31.7933 27.2861 37.9537 29.0516 42.4014 31.6807C46.8761 34.3258 49.4999 37.7651 49.5 41.0713C49.5 43.3067 48.6119 45.4506 47.0312 47.0312C45.4506 48.6119 43.3067 49.5 41.0713 49.5H8.92871C6.83297 49.5 4.81764 48.7194 3.27148 47.3193L2.96875 47.0312C1.38809 45.4506 0.5 43.3067 0.5 41.0713C0.500073 37.7651 3.12393 34.3258 7.59863 31.6807C12.0463 29.0516 18.2067 27.2861 25 27.2861ZM25 31.6426C19.1082 31.6426 13.8735 33.137 10.1709 35.2266L9.81738 35.4297V35.4307C7.80817 36.6179 6.57456 37.7799 5.83984 38.7646C5.11382 39.7378 4.85747 40.5631 4.85742 41.0713C4.85742 42.1511 5.28626 43.1867 6.0498 43.9502C6.81335 44.7137 7.8489 45.1426 8.92871 45.1426H41.0713C42.1511 45.1426 43.1867 44.7137 43.9502 43.9502C44.7137 43.1867 45.1426 42.1511 45.1426 41.0713C45.1425 40.5631 44.8862 39.7378 44.1602 38.7646C43.4714 37.8415 42.3444 36.7619 40.5508 35.6523L40.1826 35.4307V35.4297L39.8291 35.2266C36.1265 33.137 30.8918 31.6426 25 31.6426ZM25 0.5C28.1826 0.5 31.2349 1.76421 33.4854 4.01465C35.7358 6.26509 37 9.3174 37 12.5C37 15.6826 35.7358 18.7349 33.4854 20.9854C31.2349 23.2358 28.1826 24.5 25 24.5C22.0164 24.5 19.1476 23.3886 16.9463 21.3955L16.5146 20.9854C14.2642 18.7349 13 15.6826 13 12.5C13 9.51638 14.1114 6.64756 16.1045 4.44629L16.5146 4.01465C18.7651 1.76421 21.8174 0.5 25 0.5ZM25 4.85742C22.973 4.85742 21.029 5.66239 19.5957 7.0957C18.1624 8.52902 17.3574 10.473 17.3574 12.5C17.3574 14.527 18.1624 16.471 19.5957 17.9043C21.029 19.3376 22.973 20.1426 25 20.1426C27.027 20.1426 28.971 19.3376 30.4043 17.9043C31.8376 16.471 32.6426 14.527 32.6426 12.5C32.6426 10.473 31.8376 8.52902 30.4043 7.0957C28.971 5.66239 27.027 4.85742 25 4.85742Z" fill="#F9F9F9" stroke="#F9F9F9"/>
</svg>
