<svg width="54" height="54" viewBox="0 0 54 54" fill="none" xmlns="http://www.w3.org/2000/svg">
<path d="M47.8823 18.8401L46.967 18.2992L46.6844 18.1294C46.0026 17.6956 45.4282 17.0956 45.0088 16.3792C44.9637 16.3076 44.9237 16.2307 44.8437 16.0822C44.3045 15.1645 44.0427 14.0939 44.0934 13.014L44.1084 11.8869C44.1384 10.0837 44.1534 9.17674 43.9134 8.36527C43.7009 7.64327 43.3454 6.9778 42.8705 6.41349C42.3353 5.77704 41.5925 5.32092 40.1045 4.41398L38.869 3.6582C37.3885 2.75391 36.6457 2.30044 35.8579 2.12807C35.1619 1.97536 34.4432 1.98168 33.7496 2.14664C32.9668 2.33227 32.2341 2.799 30.771 3.72715L30.7635 3.73245L29.8782 4.292C29.7381 4.38216 29.6656 4.42459 29.5956 4.46702C28.9003 4.87806 28.125 5.10347 27.3273 5.12999C27.2472 5.13529 27.1647 5.13529 27.0021 5.13529L26.677 5.13264C25.879 5.10569 25.0986 4.87654 24.4012 4.46437C24.3312 4.42459 24.2636 4.37951 24.1236 4.28935L23.2307 3.72185C21.7577 2.78308 21.0199 2.31636 20.2321 2.12807C19.536 1.96285 18.8146 1.95743 18.1164 2.11216C17.3261 2.28719 16.5858 2.74331 15.1028 3.65555L15.0953 3.6582L13.8748 4.40868L13.8623 4.41929C12.3918 5.32092 11.654 5.77704 11.1238 6.41084C10.6513 6.97408 10.2975 7.63765 10.0859 8.35731C9.84832 9.17143 9.86083 10.0784 9.89084 11.8923L9.90834 13.0166C9.90834 13.189 9.91585 13.2739 9.91335 13.3561C9.9004 14.3196 9.64015 15.2611 9.16057 16.0796C9.07804 16.2281 9.04052 16.3023 8.99801 16.3713C8.57633 17.093 7.9974 17.6969 7.30989 18.1321L7.02978 18.2992L6.12695 18.8295C4.6214 19.7126 3.86862 20.1555 3.32342 20.7866C2.83869 21.3431 2.472 22.0032 2.24803 22.7225C1.99793 23.5366 1.99793 24.4462 2.00043 26.2707L2.00544 27.7637C2.00794 29.5749 2.01294 30.4792 2.26553 31.288C2.48858 32.0029 2.85261 32.6592 3.33342 33.2133C3.87863 33.8391 4.6239 34.2793 6.11695 35.1597L7.01228 35.6875C7.16483 35.7776 7.24236 35.8201 7.31489 35.8678C8.09861 36.366 8.73867 37.0822 9.16557 37.9389L9.33313 38.2571C9.75557 39.1028 9.95433 40.054 9.90834 41.0098L9.89084 42.0891C9.86083 43.9083 9.84832 44.8205 10.0884 45.6346C10.301 46.3559 10.6561 47.0216 11.1313 47.5864C11.6665 48.2229 12.4118 48.6763 13.8973 49.5859L15.1328 50.3417C16.6158 51.246 17.3561 51.6994 18.1439 51.8718C18.8399 52.0245 19.5586 52.0182 20.2522 51.8533C21.0374 51.6676 21.7702 51.2009 23.2383 50.2674L24.1236 49.7052L24.4062 49.5302C25.1014 49.1218 25.8767 48.8938 26.6745 48.8673L26.9996 48.8646H27.3248C28.12 48.8911 28.9003 49.1218 29.6006 49.5329L29.8307 49.6787L30.771 50.278C32.2466 51.2168 32.9818 51.6835 33.7696 51.8692C34.4654 52.0361 35.1868 52.0434 35.8854 51.8904C36.6732 51.7154 37.4185 51.2566 38.9015 50.3443L40.1395 49.5833C41.61 48.6763 42.3478 48.2228 42.878 47.5891C43.3532 47.0242 43.7033 46.3612 43.9159 45.6426C44.1534 44.8338 44.1409 43.9348 44.1109 42.1474L44.0909 40.9806V40.6438C44.1027 39.6797 44.3621 38.7372 44.8412 37.9177L45.0038 37.626C45.4254 36.9042 46.0044 36.3004 46.6919 35.8651L46.967 35.7034L46.972 35.7007L47.8748 35.1704C49.3804 34.2846 50.1331 33.8444 50.6808 33.2133C51.166 32.6564 51.5312 31.9934 51.7537 31.2774C52.0038 30.4686 52.0038 29.5617 51.9988 27.7584L51.9938 26.2362C51.9913 24.425 51.9888 23.518 51.7362 22.7092C51.5121 21.9951 51.1472 21.3397 50.6658 20.7866C50.1231 20.1608 49.3779 19.7206 47.8873 18.8428L47.8823 18.8401Z" stroke="#F9F9F9" stroke-width="6" stroke-linecap="round" stroke-linejoin="round"/>
<path d="M16.996 26.9999C16.996 29.8132 18.0499 32.5113 19.926 34.5006C21.802 36.4898 24.3465 37.6074 26.9997 37.6074C29.6528 37.6074 32.1973 36.4898 34.0733 34.5006C35.9494 32.5113 37.0033 29.8132 37.0033 26.9999C37.0033 24.1867 35.9494 21.4886 34.0733 19.4993C32.1973 17.51 29.6528 16.3925 26.9997 16.3925C24.3465 16.3925 21.802 17.51 19.926 19.4993C18.0499 21.4886 16.996 24.1867 16.996 26.9999Z" stroke="#F9F9F9" stroke-width="6" stroke-linecap="round" stroke-linejoin="round"/>
</svg>
