<svg width="28" height="28" viewBox="0 0 28 28" fill="none" xmlns="http://www.w3.org/2000/svg">
<path d="M16.25 1.62501C16.25 1.40374 16.1847 1.18739 16.0624 1.00303C15.94 0.818671 15.766 0.674485 15.5621 0.588513C15.3582 0.50254 15.1335 0.478601 14.9161 0.519689C14.6987 0.560776 14.4982 0.665067 14.3398 0.819512L7.754 7.23201H3.875C2.97989 7.23201 2.12145 7.58759 1.48851 8.22053C0.855579 8.85346 0.5 9.71191 0.5 10.607V17.3345C0.5 18.2296 0.855579 19.0881 1.48851 19.721C2.12145 20.3539 2.97989 20.7095 3.875 20.7095H7.75175L14.3375 27.1783C14.4957 27.3333 14.6962 27.4382 14.9138 27.4798C15.1314 27.5214 15.3564 27.4979 15.5606 27.4121C15.7649 27.3263 15.9393 27.1821 16.0619 26.9976C16.1845 26.8131 16.25 26.5965 16.25 26.375V1.62501ZM18.7498 7.67526C18.8417 7.55951 18.9556 7.46302 19.0849 7.39132C19.2142 7.31962 19.3564 7.27411 19.5033 7.25739C19.6502 7.24067 19.799 7.25308 19.9411 7.29389C20.0832 7.33471 20.2159 7.40314 20.3315 7.49526L20.336 7.49751L20.3405 7.50201L20.3517 7.51101L20.3855 7.54026L20.489 7.63026C20.5715 7.70526 20.678 7.81176 20.8085 7.94976C21.0628 8.22651 21.3935 8.62926 21.7197 9.16476C22.3745 10.2448 23.009 11.849 23.009 13.9978C23.009 16.1443 22.3745 17.7508 21.7197 18.8308C21.4572 19.2658 21.1519 19.6735 20.8085 20.048C20.664 20.202 20.5123 20.3492 20.354 20.489L20.336 20.5048H20.3337C20.3337 20.5048 19.328 21.0515 18.752 20.3293C18.5668 20.0975 18.4806 19.802 18.5122 19.507C18.5438 19.2121 18.6906 18.9415 18.9208 18.7543L18.9253 18.7498L18.9657 18.7138C19.0077 18.6763 19.0715 18.6125 19.157 18.5225C19.398 18.2579 19.612 17.97 19.796 17.663C20.2685 16.8868 20.759 15.6785 20.759 13.9955C20.759 12.3125 20.2685 11.1088 19.796 10.3348C19.5643 9.95312 19.2862 9.60169 18.968 9.28851L18.9275 9.25251C18.6954 9.06651 18.5464 8.79616 18.5131 8.50058C18.4797 8.205 18.5648 7.90826 18.7498 7.67526ZM22.5792 2.99526C22.4641 2.89995 22.3311 2.82854 22.188 2.78522C22.0449 2.7419 21.8946 2.72753 21.7459 2.74296C21.5972 2.75839 21.4531 2.8033 21.3219 2.87507C21.1908 2.94684 21.0752 3.04403 20.9821 3.16096C20.8889 3.27789 20.82 3.41221 20.7794 3.55608C20.7387 3.69995 20.7272 3.85048 20.7453 3.99887C20.7635 4.14726 20.8111 4.29053 20.8853 4.42032C20.9595 4.55011 21.0589 4.6638 21.1775 4.75476L21.2023 4.77726L21.3193 4.87851C21.4273 4.97301 21.578 5.11926 21.7715 5.31726C22.154 5.71551 22.6715 6.31401 23.189 7.10376C24.224 8.68101 25.259 11.003 25.259 14.009C25.2678 16.4621 24.5473 18.8625 23.189 20.9053C22.6715 21.6928 22.154 22.2868 21.7715 22.6828C21.5904 22.8709 21.4012 23.0511 21.2045 23.2228L21.1797 23.2453H21.1775C20.9504 23.4332 20.8062 23.7027 20.7758 23.9959C20.7454 24.289 20.8312 24.5824 21.0149 24.813C21.1985 25.0435 21.4653 25.1927 21.7579 25.2286C22.0504 25.2645 22.3453 25.1841 22.5792 25.0048L22.6535 24.944L22.8222 24.7978C22.964 24.6695 23.1597 24.4873 23.3915 24.2465C24.0156 23.5985 24.5775 22.8934 25.07 22.1405C26.6683 19.7305 27.5163 16.9008 27.5068 14.009C27.5127 11.1149 26.6651 8.28335 25.07 5.86851C24.5774 5.11492 24.0163 4.40842 23.3938 3.75801C23.1584 3.51376 22.9122 3.28027 22.6558 3.05826L22.604 3.01551L22.5883 3.00201L22.5837 2.99751L22.5792 2.99526Z" fill="#333333"/>
</svg>
