<svg width="32" height="30" viewBox="0 0 32 30" fill="none" xmlns="http://www.w3.org/2000/svg">
<path d="M10.8805 9.35404L14.7775 1.50604C14.8909 1.27891 15.0654 1.08788 15.2813 0.954364C15.4973 0.820846 15.7461 0.750122 16 0.750122C16.2539 0.750122 16.5027 0.820846 16.7187 0.954364C16.9346 1.08788 17.1091 1.27891 17.2225 1.50604L21.1195 9.35404L29.8315 10.62C30.0828 10.6549 30.3192 10.7597 30.5138 10.9225C30.7084 11.0852 30.8533 11.2994 30.932 11.5406C31.0106 11.7818 31.0199 12.0403 30.9587 12.2865C30.8976 12.5327 30.7684 12.7567 30.586 12.933L24.283 19.038L25.771 27.663C25.9615 28.77 24.7915 29.613 23.791 29.091L16 25.017L8.20749 29.091C7.20849 29.6145 6.03849 28.77 6.22899 27.6615L7.71699 19.0365L1.41399 12.9315C1.23247 12.7551 1.10409 12.5313 1.04344 12.2855C0.982786 12.0397 0.992299 11.7819 1.07089 11.5413C1.14949 11.3006 1.29402 11.0869 1.48804 10.9243C1.68207 10.7617 1.91782 10.6568 2.16849 10.6215L10.8805 9.35404Z" fill="#F9F9F9" stroke="#F9F9F9" stroke-width="1.5" stroke-linecap="round" stroke-linejoin="round"/>
</svg>
