<svg width="36" height="36" viewBox="0 0 36 36" fill="none" xmlns="http://www.w3.org/2000/svg">
<g id="style=light, icon=voc">
<path id="Vector" d="M32.5758 27.3586L27.9084 5.16799C27.8481 4.8778 27.731 4.6024 27.5638 4.3576C27.3967 4.1128 27.1829 3.90344 26.9346 3.74154C26.6863 3.57963 26.4085 3.46838 26.1171 3.41417C25.8257 3.35996 25.5265 3.36386 25.2366 3.42565L18.6539 4.84034C18.0716 4.96783 17.5633 5.32006 17.2394 5.82041C16.9154 6.32077 16.8022 6.92879 16.9242 7.51221L21.5916 29.7028C21.6956 30.2091 21.9707 30.6642 22.3707 30.9914C22.7708 31.3187 23.2713 31.4983 23.7881 31.5C23.9479 31.4998 24.1072 31.4828 24.2634 31.4494L30.8461 30.0347C31.4291 29.9069 31.9379 29.554 32.2619 29.0528C32.5859 28.5515 32.6987 27.9426 32.5758 27.3586ZM19.125 7.05237V7.03971L25.7063 5.63346L26.1745 7.86518L19.5933 9.28127L19.125 7.05237ZM20.5312 13.7152L20.0602 11.4792L26.6442 10.0646L27.1139 12.3005L20.5312 13.7152ZM30.375 27.8353L23.7937 29.2416L23.3255 27.0099L29.9067 25.5938L30.375 27.8227V27.8353ZM14.625 4.50002H7.875C7.27826 4.50002 6.70597 4.73708 6.28401 5.15903C5.86205 5.58099 5.625 6.15329 5.625 6.75002V29.25C5.625 29.8468 5.86205 30.4191 6.28401 30.841C6.70597 31.263 7.27826 31.5 7.875 31.5H14.625C15.2217 31.5 15.794 31.263 16.216 30.841C16.6379 30.4191 16.875 29.8468 16.875 29.25V6.75002C16.875 6.15329 16.6379 5.58099 16.216 5.15903C15.794 4.73708 15.2217 4.50002 14.625 4.50002ZM7.875 6.75002H14.625V9.00002H7.875V6.75002ZM14.625 29.25H7.875V27H14.625V29.25Z" fill="#F9F9F9"/>
</g>
</svg>
