<svg width="36" height="36" viewBox="0 0 36 36" fill="none" xmlns="http://www.w3.org/2000/svg">
<g id="style=light, icon=wrong" clip-path="url(#clip0_31_57)">
<path id="Vector" fill-rule="evenodd" clip-rule="evenodd" d="M20.25 5.62502C20.25 6.22176 20.0129 6.79406 19.591 7.21601C19.169 7.63797 18.5967 7.87502 18 7.87502C17.4033 7.87502 16.831 7.63797 16.409 7.21601C15.9871 6.79406 15.75 6.22176 15.75 5.62502C15.75 5.02829 15.9871 4.45599 16.409 4.03403C16.831 3.61208 17.4033 3.37502 18 3.37502C18.5967 3.37502 19.169 3.61208 19.591 4.03403C20.0129 4.45599 20.25 5.02829 20.25 5.62502ZM23.5125 4.50002C23.2543 3.22845 22.5644 2.08524 21.5598 1.2641C20.5552 0.442958 19.2975 -0.00561523 18 -0.00561523C16.7025 -0.00561523 15.4448 0.442958 14.4402 1.2641C13.4356 2.08524 12.7457 3.22845 12.4875 4.50002H6.75C6.15326 4.50002 5.58097 4.73708 5.15901 5.15903C4.73705 5.58099 4.5 6.15329 4.5 6.75002V33.75C4.5 34.3468 4.73705 34.9191 5.15901 35.341C5.58097 35.763 6.15326 36 6.75 36H29.25C29.8467 36 30.419 35.763 30.841 35.341C31.2629 34.9191 31.5 34.3468 31.5 33.75V6.75002C31.5 6.15329 31.2629 5.58099 30.841 5.15903C30.419 4.73708 29.8467 4.50002 29.25 4.50002H23.5125ZM18 11.25H12.375V7.87502H7.875V32.625H28.125V7.87502H23.625V11.25H18ZM11.25 17.4375C11.25 16.99 11.4278 16.5607 11.7443 16.2443C12.0607 15.9278 12.4899 15.75 12.9375 15.75H23.0625C23.5101 15.75 23.9393 15.9278 24.2557 16.2443C24.5722 16.5607 24.75 16.99 24.75 17.4375C24.75 17.8851 24.5722 18.3143 24.2557 18.6308C23.9393 18.9472 23.5101 19.125 23.0625 19.125H12.9375C12.4899 19.125 12.0607 18.9472 11.7443 18.6308C11.4278 18.3143 11.25 17.8851 11.25 17.4375ZM12.9375 21.375C12.4899 21.375 12.0607 21.5528 11.7443 21.8693C11.4278 22.1857 11.25 22.615 11.25 23.0625C11.25 23.5101 11.4278 23.9393 11.7443 24.2558C12.0607 24.5722 12.4899 24.75 12.9375 24.75H23.0625C23.5101 24.75 23.9393 24.5722 24.2557 24.2558C24.5722 23.9393 24.75 23.5101 24.75 23.0625C24.75 22.615 24.5722 22.1857 24.2557 21.8693C23.9393 21.5528 23.5101 21.375 23.0625 21.375H12.9375Z" fill="#F9F9F9"/>
</g>
<defs>
<clipPath id="clip0_31_57">
<rect width="36" height="36" fill="white"/>
</clipPath>
</defs>
</svg>
