<svg width="32" height="30" viewBox="0 0 32 30" fill="none" xmlns="http://www.w3.org/2000/svg">
<path d="M10.6261 9.35361L14.523 1.50586C14.6364 1.27875 14.8109 1.08772 15.0268 0.954211C15.2427 0.820697 15.4916 0.749976 15.7455 0.749976C15.9993 0.749976 16.2482 0.820697 16.4641 0.954211C16.68 1.08772 16.8545 1.27875 16.9679 1.50586L20.8648 9.35361L29.5765 10.6196C29.8278 10.6544 30.0642 10.7592 30.2588 10.922C30.4534 11.0847 30.5983 11.2989 30.6769 11.5401C30.7556 11.7813 30.7649 12.0397 30.7037 12.2859C30.6425 12.5321 30.5134 12.7562 30.331 12.9325L24.0282 19.0373L25.5161 27.662C25.7066 28.769 24.5367 29.6119 23.5362 29.09L15.7455 25.0161L7.9532 29.09C6.95424 29.6134 5.78427 28.769 5.97477 27.6605L7.46272 19.0358L1.15992 12.931C0.97841 12.7546 0.850032 12.5307 0.789383 12.285C0.728734 12.0392 0.738247 11.7814 0.81684 11.5408C0.895433 11.3001 1.03995 11.0864 1.23398 10.9238C1.428 10.7612 1.66374 10.6563 1.9144 10.6211L10.6261 9.35361Z" fill="#333333" stroke="#333333" stroke-width="1.5" stroke-linecap="round" stroke-linejoin="round"/>
</svg>
