<svg width="30" height="33" viewBox="0 0 30 33" fill="none" xmlns="http://www.w3.org/2000/svg">
<path fill-rule="evenodd" clip-rule="evenodd" d="M17.0667 3.41379H12.515C12.2132 3.41379 11.9237 3.53368 11.7103 3.74709C11.4969 3.96049 11.377 4.24993 11.377 4.55172V5.68966H18.2046V4.55172C18.2046 4.24993 18.0847 3.96049 17.8713 3.74709C17.6579 3.53368 17.3685 3.41379 17.0667 3.41379ZM21.6184 5.68966V4.55172C21.6184 3.34453 21.1389 2.18678 20.2852 1.33317C19.4316 0.479555 18.2739 0 17.0667 0H12.515C11.3078 0 10.15 0.479555 9.29641 1.33317C8.4428 2.18678 7.96324 3.34453 7.96324 4.55172V5.68966H1.7069C1.2542 5.68966 0.820043 5.86949 0.499938 6.18959C0.179833 6.5097 0 6.94385 0 7.39655C0 7.84925 0.179833 8.28341 0.499938 8.60351C0.820043 8.92362 1.2542 9.10345 1.7069 9.10345H2.41697L3.13841 26.4569C3.21182 28.2171 3.96281 29.8809 5.23439 31.1003C6.50596 32.3197 8.19967 33.0004 9.96145 33H19.6225C21.3839 32.9998 23.077 32.3188 24.3481 31.0995C25.6192 29.8801 26.3698 28.2167 26.4432 26.4569L27.167 9.10345H27.877C28.3297 9.10345 28.7639 8.92362 29.084 8.60351C29.4041 8.28341 29.5839 7.84925 29.5839 7.39655C29.5839 6.94385 29.4041 6.5097 29.084 6.18959C28.7639 5.86949 28.3297 5.68966 27.877 5.68966H21.6184ZM23.7486 9.10345H5.83303L6.54993 26.3135C6.58635 27.1938 6.96172 28.026 7.59754 28.6359C8.23335 29.2459 9.08037 29.5864 9.96145 29.5862H19.6225C20.5032 29.5858 21.3496 29.245 21.9849 28.6351C22.6203 28.0253 22.9953 27.1934 23.0317 26.3135L23.7486 9.10345ZM9.67014 13.6552V25.0345C9.67014 25.4872 9.84997 25.9213 10.1701 26.2414C10.4902 26.5615 10.9243 26.7414 11.377 26.7414C11.8297 26.7414 12.2639 26.5615 12.584 26.2414C12.9041 25.9213 13.0839 25.4872 13.0839 25.0345V13.6552C13.0839 13.2025 12.9041 12.7683 12.584 12.4482C12.2639 12.1281 11.8297 11.9483 11.377 11.9483C10.9243 11.9483 10.4902 12.1281 10.1701 12.4482C9.84997 12.7683 9.67014 13.2025 9.67014 13.6552ZM18.2046 11.9483C18.6573 11.9483 19.0915 12.1281 19.4116 12.4482C19.7317 12.7683 19.9115 13.2025 19.9115 13.6552V25.0345C19.9115 25.4872 19.7317 25.9213 19.4116 26.2414C19.0915 26.5615 18.6573 26.7414 18.2046 26.7414C17.7519 26.7414 17.3178 26.5615 16.9977 26.2414C16.6776 25.9213 16.4977 25.4872 16.4977 25.0345V13.6552C16.4977 13.2025 16.6776 12.7683 16.9977 12.4482C17.3178 12.1281 17.7519 11.9483 18.2046 11.9483Z" fill="#F9F9F9"/>
</svg>
