<svg width="28" height="27" viewBox="0 0 28 27" fill="none" xmlns="http://www.w3.org/2000/svg">
<path d="M15.7501 1.1249C15.7501 0.90363 15.6848 0.687279 15.5625 0.502915C15.4401 0.318552 15.2661 0.174364 15.0622 0.0883913C14.8584 0.00241832 14.6336 -0.0215214 14.4162 0.0195668C14.1988 0.0606549 13.9983 0.164946 13.8399 0.319393L7.25407 6.73195H3.37503C2.47992 6.73195 1.62146 7.08753 0.988524 7.72047C0.355583 8.35342 0 9.21187 0 10.107V16.8345C0 17.7297 0.355583 18.5881 0.988524 19.221C1.62146 19.854 2.47992 20.2096 3.37503 20.2096H7.25182L13.8376 26.6784C13.9958 26.8335 14.1963 26.9384 14.4139 26.98C14.6315 27.0216 14.8565 26.998 15.0608 26.9122C15.265 26.8264 15.4394 26.6822 15.562 26.4977C15.6847 26.3133 15.7501 26.0967 15.7501 25.8751V1.1249ZM18.2499 7.17521C18.3419 7.05945 18.4558 6.96296 18.5851 6.89126C18.7144 6.81956 18.8566 6.77405 19.0035 6.75733C19.1504 6.74061 19.2992 6.75302 19.4413 6.79383C19.5834 6.83465 19.716 6.90308 19.8317 6.9952L19.8362 6.99745L19.8407 7.00195L19.8519 7.01095L19.8857 7.0402L19.9892 7.13021C20.0717 7.20521 20.1782 7.31171 20.3087 7.44971C20.5629 7.72646 20.8937 8.12921 21.2199 8.66472C21.8747 9.74473 22.5092 11.349 22.5092 13.4978C22.5092 15.6443 21.8747 17.2508 21.2199 18.3308C20.9574 18.7658 20.6521 19.1736 20.3087 19.5481C20.1642 19.7021 20.0125 19.8493 19.8542 19.9891L19.8362 20.0048H19.8339C19.8339 20.0048 18.8282 20.5516 18.2522 19.8293C18.0669 19.5976 17.9808 19.3021 18.0124 19.0071C18.044 18.7121 18.1908 18.4415 18.4209 18.2543L18.4254 18.2498L18.4659 18.2138C18.5079 18.1763 18.5717 18.1126 18.6572 18.0226C18.8981 17.7579 19.1122 17.47 19.2962 17.163C19.7687 16.3868 20.2592 15.1785 20.2592 13.4955C20.2592 11.8125 19.7687 10.6087 19.2962 9.83473C19.0645 9.45309 18.7864 9.10165 18.4682 8.78847L18.4277 8.75247C18.1955 8.56647 18.0465 8.29611 18.0132 8.00053C17.9799 7.70495 18.065 7.4082 18.2499 7.17521ZM22.0794 2.49516C21.9643 2.39985 21.8313 2.32844 21.6882 2.28512C21.5451 2.2418 21.3948 2.22743 21.2461 2.24286C21.0974 2.25829 20.9532 2.3032 20.8221 2.37497C20.6909 2.44674 20.5754 2.54393 20.4823 2.66086C20.3891 2.77779 20.3202 2.91212 20.2795 3.05599C20.2389 3.19986 20.2273 3.35039 20.2455 3.49878C20.2637 3.64717 20.3113 3.79044 20.3855 3.92023C20.4597 4.05002 20.559 4.16372 20.6777 4.25468L20.7024 4.27718L20.8194 4.37843C20.9274 4.47293 21.0782 4.61918 21.2717 4.81718C21.6542 5.21544 22.1717 5.81394 22.6892 6.6037C23.7242 8.18096 24.7592 10.503 24.7592 13.509C24.768 15.9621 24.0475 18.3625 22.6892 20.4053C22.1717 21.1928 21.6542 21.7868 21.2717 22.1828C21.0906 22.371 20.9014 22.5512 20.7047 22.7228L20.6799 22.7453H20.6777C20.4506 22.9333 20.3064 23.2028 20.276 23.496C20.2455 23.7891 20.3314 24.0825 20.515 24.313C20.6987 24.5436 20.9655 24.6928 21.258 24.7287C21.5506 24.7646 21.8455 24.6842 22.0794 24.5049L22.1537 24.4441L22.3225 24.2979C22.4642 24.1696 22.66 23.9874 22.8917 23.7466C23.5158 23.0986 24.0777 22.3935 24.5702 21.6406C26.1685 19.2306 27.0165 16.4008 27.007 13.509C27.0129 10.6149 26.1653 7.78329 24.5702 5.36844C24.0776 4.61484 23.5165 3.90833 22.894 3.25792C22.6586 3.01366 22.4124 2.78017 22.156 2.55816L22.1042 2.51541L22.0885 2.50191L22.0839 2.49741L22.0794 2.49516Z" fill="#333333"/>
</svg>
