<svg width="30" height="33" viewBox="0 0 30 33" fill="none" xmlns="http://www.w3.org/2000/svg">
<path fill-rule="evenodd" clip-rule="evenodd" d="M17.2499 3.5H12.7499C12.4516 3.5 12.1654 3.61853 11.9545 3.82951C11.7435 4.04048 11.6249 4.32663 11.6249 4.625V5.75H18.3749V4.625C18.3749 4.32663 18.2564 4.04048 18.0454 3.82951C17.8345 3.61853 17.5483 3.5 17.2499 3.5ZM21.7499 5.75V4.625C21.7499 3.43153 21.2758 2.28693 20.4319 1.44302C19.588 0.599106 18.4434 0.125 17.2499 0.125H12.7499C11.5565 0.125 10.4119 0.599106 9.56797 1.44302C8.72405 2.28693 8.24995 3.43153 8.24995 4.625V5.75H2.0647C1.61714 5.75 1.18792 5.92779 0.871454 6.24426C0.554987 6.56072 0.377197 6.98995 0.377197 7.4375C0.377197 7.88505 0.554987 8.31428 0.871454 8.63074C1.18792 8.94721 1.61714 9.125 2.0647 9.125H2.7667L3.47995 26.2812C3.55252 28.0215 4.29498 29.6663 5.5521 30.8719C6.80922 32.0774 8.48369 32.7504 10.2254 32.75H19.7767C21.5181 32.7498 23.192 32.0766 24.4486 30.8711C25.7052 29.6656 26.4474 28.0211 26.5199 26.2812L27.2354 9.125H27.9374C28.385 9.125 28.8142 8.94721 29.1307 8.63074C29.4472 8.31428 29.6249 7.88505 29.6249 7.4375C29.6249 6.98995 29.4472 6.56072 29.1307 6.24426C28.8142 5.92779 28.385 5.75 27.9374 5.75H21.7499ZM23.8559 9.125H6.14395L6.8527 26.1395C6.8887 27.0098 7.25981 27.8325 7.8884 28.4355C8.51699 29.0385 9.35438 29.3752 10.2254 29.375H19.7767C20.6474 29.3746 21.4842 29.0377 22.1123 28.4347C22.7404 27.8318 23.1112 27.0094 23.1472 26.1395L23.8559 9.125ZM9.93745 13.625V24.875C9.93745 25.3226 10.1152 25.7518 10.4317 26.0682C10.7482 26.3847 11.1774 26.5625 11.6249 26.5625C12.0725 26.5625 12.5017 26.3847 12.8182 26.0682C13.1347 25.7518 13.3124 25.3226 13.3124 24.875V13.625C13.3124 13.1774 13.1347 12.7482 12.8182 12.4318C12.5017 12.1153 12.0725 11.9375 11.6249 11.9375C11.1774 11.9375 10.7482 12.1153 10.4317 12.4318C10.1152 12.7482 9.93745 13.1774 9.93745 13.625ZM18.3749 11.9375C18.8225 11.9375 19.2517 12.1153 19.5682 12.4318C19.8847 12.7482 20.0624 13.1774 20.0624 13.625V24.875C20.0624 25.3226 19.8847 25.7518 19.5682 26.0682C19.2517 26.3847 18.8225 26.5625 18.3749 26.5625C17.9274 26.5625 17.4982 26.3847 17.1817 26.0682C16.8652 25.7518 16.6874 25.3226 16.6874 24.875V13.625C16.6874 13.1774 16.8652 12.7482 17.1817 12.4318C17.4982 12.1153 17.9274 11.9375 18.3749 11.9375Z" fill="#333333"/>
</svg>
