<svg width="36" height="36" viewBox="0 0 36 36" fill="none" xmlns="http://www.w3.org/2000/svg">
<g id="style=dark, icon=review">
<path id="Vector" d="M32.8665 10.713C32.3409 8.90796 31.3684 7.26473 30.0391 5.93539C28.7098 4.60605 27.0665 3.63357 25.2615 3.10796C24.7696 2.98094 24.2535 2.98094 23.7615 3.10796C23.2668 3.25159 22.8173 3.52022 22.4565 3.88796L19.1115 7.24796L4.80152 21.543C4.35173 22.0126 4.05831 22.6099 3.96152 23.253L3.04652 29.493C2.97652 29.96 3.01241 30.4367 3.15153 30.888C3.30453 31.338 3.55653 31.7475 3.88653 32.088C4.22253 32.421 4.62753 32.676 5.07153 32.838C5.38203 32.94 5.70602 32.9895 6.03152 32.988H6.46652L12.7065 32.073C13.358 31.9893 13.964 31.6942 14.4315 31.233L28.7565 16.908L32.0865 13.593C32.4617 13.2258 32.734 12.7665 32.8761 12.2611C33.0183 11.7557 33.0253 11.2219 32.8965 10.713H32.8665ZM30.6765 11.658C30.6369 11.7846 30.5645 11.8985 30.4665 11.988L27.9315 14.523L21.4515 8.05796L24.0165 5.49296C24.1156 5.40313 24.2335 5.33652 24.3615 5.29796H24.7065C26.1266 5.72036 27.419 6.49021 28.4666 7.53786C29.5143 8.5855 30.2841 9.87786 30.7065 11.298C30.721 11.4188 30.7108 11.5412 30.6765 11.658Z" fill="#333333"/>
</g>
</svg>
