<svg width="56" height="56" viewBox="0 0 56 56" fill="none" xmlns="http://www.w3.org/2000/svg">
<path d="M48.8823 19.8401L47.967 19.2992L47.6844 19.1294C47.0026 18.6956 46.4282 18.0956 46.0088 17.3792C45.9638 17.3076 45.9237 17.2307 45.8437 17.0822C45.3045 16.1645 45.0427 15.0939 45.0934 14.014L45.1084 12.8869C45.1384 11.0837 45.1535 10.1767 44.9134 9.36527C44.701 8.64327 44.3454 7.9778 43.8705 7.41349C43.3353 6.77704 42.5925 6.32092 41.1045 5.41398L39.869 4.6582C38.3885 3.75391 37.6457 3.30044 36.8579 3.12807C36.1619 2.97536 35.4432 2.98168 34.7496 3.14664C33.9668 3.33227 33.2341 3.799 31.771 4.72715L31.7635 4.73245L30.8782 5.292C30.7381 5.38216 30.6656 5.42459 30.5956 5.46702C29.9003 5.87806 29.1251 6.10347 28.3273 6.12999C28.2472 6.13529 28.1647 6.13529 28.0021 6.13529L27.677 6.13264C26.879 6.10569 26.0986 5.87654 25.4012 5.46437C25.3312 5.42459 25.2636 5.37951 25.1236 5.28935L24.2307 4.72185C22.7577 3.78308 22.0199 3.31636 21.2321 3.12807C20.536 2.96285 19.8146 2.95743 19.1164 3.11216C18.3261 3.28719 17.5858 3.74331 16.1028 4.65555L16.0953 4.6582L14.8748 5.40868L14.8623 5.41929C13.3918 6.32092 12.654 6.77704 12.1238 7.41084C11.6513 7.97408 11.2975 8.63765 11.0859 9.35731C10.8483 10.1714 10.8608 11.0784 10.8908 12.8923L10.9083 14.0166C10.9083 14.189 10.9158 14.2739 10.9133 14.3561C10.9004 15.3196 10.6402 16.2611 10.1606 17.0796C10.078 17.2281 10.0405 17.3023 9.99801 17.3713C9.57633 18.093 8.9974 18.6969 8.30989 19.1321L8.02979 19.2992L7.12695 19.8295C5.6214 20.7126 4.86862 21.1555 4.32342 21.7866C3.83869 22.3431 3.472 23.0032 3.24803 23.7225C2.99793 24.5366 2.99793 25.4462 3.00043 27.2707L3.00544 28.7637C3.00794 30.5749 3.01294 31.4792 3.26553 32.288C3.48858 33.0029 3.85261 33.6592 4.33342 34.2133C4.87863 34.8391 5.6239 35.2793 7.11695 36.1597L8.01228 36.6875C8.16483 36.7776 8.24236 36.8201 8.31489 36.8678C9.09861 37.366 9.73867 38.0822 10.1656 38.9389L10.3331 39.2571C10.7556 40.1028 10.9543 41.054 10.9083 42.0098L10.8908 43.0891C10.8608 44.9083 10.8483 45.8205 11.0884 46.6346C11.301 47.3559 11.6561 48.0216 12.1313 48.5864C12.6665 49.2229 13.4118 49.6763 14.8973 50.5859L16.1328 51.3417C17.6158 52.246 18.3561 52.6994 19.1439 52.8718C19.8399 53.0245 20.5586 53.0182 21.2522 52.8533C22.0374 52.6676 22.7702 52.2009 24.2383 51.2674L25.1236 50.7052L25.4062 50.5302C26.1014 50.1218 26.8767 49.8938 27.6745 49.8673L27.9996 49.8646H28.3248C29.1201 49.8911 29.9003 50.1218 30.6006 50.5329L30.8307 50.6787L31.771 51.278C33.2466 52.2168 33.9818 52.6835 34.7696 52.8692C35.4654 53.0361 36.1868 53.0434 36.8854 52.8904C37.6732 52.7154 38.4185 52.2566 39.9015 51.3443L41.1395 50.5833C42.61 49.6763 43.3478 49.2229 43.878 48.5891C44.3532 48.0242 44.7033 47.3612 44.9159 46.6426C45.1535 45.8338 45.1409 44.9348 45.1109 43.1474L45.0909 41.9806V41.6438C45.1027 40.6797 45.3621 39.7372 45.8412 38.9177L46.0038 38.626C46.4254 37.9042 47.0044 37.3004 47.6919 36.8651L47.967 36.7034L47.972 36.7007L48.8748 36.1704C50.3804 35.2846 51.1332 34.8444 51.6809 34.2133C52.166 33.6564 52.5312 32.9934 52.7538 32.2774C53.0038 31.4686 53.0038 30.5617 52.9988 28.7584L52.9938 27.2362C52.9913 25.425 52.9888 24.518 52.7362 23.7092C52.5121 22.9951 52.1473 22.3397 51.6658 21.7866C51.1231 21.1608 50.3779 20.7206 48.8873 19.8428L48.8823 19.8401Z" stroke="#333333" stroke-width="6" stroke-linecap="round" stroke-linejoin="round"/>
<path d="M17.996 27.9999C17.996 30.8132 19.0499 33.5113 20.926 35.5005C22.802 37.4898 25.3465 38.6074 27.9997 38.6074C30.6528 38.6074 33.1973 37.4898 35.0733 35.5005C36.9494 33.5113 38.0033 30.8132 38.0033 27.9999C38.0033 25.1867 36.9494 22.4886 35.0733 20.4993C33.1973 18.51 30.6528 17.3925 27.9997 17.3925C25.3465 17.3925 22.802 18.51 20.926 20.4993C19.0499 22.4886 17.996 25.1867 17.996 27.9999Z" stroke="#333333" stroke-width="6" stroke-linecap="round" stroke-linejoin="round"/>
</svg>
