<svg width="36" height="36" viewBox="0 0 36 36" fill="none" xmlns="http://www.w3.org/2000/svg">
<g id="style=dark, icon=typing">
<path id="Vector" fill-rule="evenodd" clip-rule="evenodd" d="M12 7.5H24C28.242 7.5 30.3645 7.5 31.6815 8.8185C33 10.1355 33 12.258 33 16.5V19.5C33 23.742 33 25.8645 31.6815 27.1815C30.3645 28.5 28.242 28.5 24 28.5H12C7.758 28.5 5.6355 28.5 4.3185 27.1815C3 25.8645 3 23.742 3 19.5V16.5C3 12.258 3 10.1355 4.3185 8.8185C5.6355 7.5 7.758 7.5 12 7.5ZM9 15C9.39782 15 9.77936 14.842 10.0607 14.5607C10.342 14.2794 10.5 13.8978 10.5 13.5C10.5 13.1022 10.342 12.7206 10.0607 12.4393C9.77936 12.158 9.39782 12 9 12C8.60218 12 8.22064 12.158 7.93934 12.4393C7.65804 12.7206 7.5 13.1022 7.5 13.5C7.5 13.8978 7.65804 14.2794 7.93934 14.5607C8.22064 14.842 8.60218 15 9 15ZM9 19.5C9.39782 19.5 9.77936 19.342 10.0607 19.0607C10.342 18.7794 10.5 18.3978 10.5 18C10.5 17.6022 10.342 17.2206 10.0607 16.9393C9.77936 16.658 9.39782 16.5 9 16.5C8.60218 16.5 8.22064 16.658 7.93934 16.9393C7.65804 17.2206 7.5 17.6022 7.5 18C7.5 18.3978 7.65804 18.7794 7.93934 19.0607C8.22064 19.342 8.60218 19.5 9 19.5ZM13.5 19.5C13.8978 19.5 14.2794 19.342 14.5607 19.0607C14.842 18.7794 15 18.3978 15 18C15 17.6022 14.842 17.2206 14.5607 16.9393C14.2794 16.658 13.8978 16.5 13.5 16.5C13.1022 16.5 12.7206 16.658 12.4393 16.9393C12.158 17.2206 12 17.6022 12 18C12 18.3978 12.158 18.7794 12.4393 19.0607C12.7206 19.342 13.1022 19.5 13.5 19.5ZM13.5 15C13.8978 15 14.2794 14.842 14.5607 14.5607C14.842 14.2794 15 13.8978 15 13.5C15 13.1022 14.842 12.7206 14.5607 12.4393C14.2794 12.158 13.8978 12 13.5 12C13.1022 12 12.7206 12.158 12.4393 12.4393C12.158 12.7206 12 13.1022 12 13.5C12 13.8978 12.158 14.2794 12.4393 14.5607C12.7206 14.842 13.1022 15 13.5 15ZM18 15C18.3978 15 18.7794 14.842 19.0607 14.5607C19.342 14.2794 19.5 13.8978 19.5 13.5C19.5 13.1022 19.342 12.7206 19.0607 12.4393C18.7794 12.158 18.3978 12 18 12C17.6022 12 17.2206 12.158 16.9393 12.4393C16.658 12.7206 16.5 13.1022 16.5 13.5C16.5 13.8978 16.658 14.2794 16.9393 14.5607C17.2206 14.842 17.6022 15 18 15ZM18 19.5C18.3978 19.5 18.7794 19.342 19.0607 19.0607C19.342 18.7794 19.5 18.3978 19.5 18C19.5 17.6022 19.342 17.2206 19.0607 16.9393C18.7794 16.658 18.3978 16.5 18 16.5C17.6022 16.5 17.2206 16.658 16.9393 16.9393C16.658 17.2206 16.5 17.6022 16.5 18C16.5 18.3978 16.658 18.7794 16.9393 19.0607C17.2206 19.342 17.6022 19.5 18 19.5ZM22.5 15C22.8978 15 23.2794 14.842 23.5607 14.5607C23.842 14.2794 24 13.8978 24 13.5C24 13.1022 23.842 12.7206 23.5607 12.4393C23.2794 12.158 22.8978 12 22.5 12C22.1022 12 21.7206 12.158 21.4393 12.4393C21.158 12.7206 21 13.1022 21 13.5C21 13.8978 21.158 14.2794 21.4393 14.5607C21.7206 14.842 22.1022 15 22.5 15ZM22.5 19.5C22.8978 19.5 23.2794 19.342 23.5607 19.0607C23.842 18.7794 24 18.3978 24 18C24 17.6022 23.842 17.2206 23.5607 16.9393C23.2794 16.658 22.8978 16.5 22.5 16.5C22.1022 16.5 21.7206 16.658 21.4393 16.9393C21.158 17.2206 21 17.6022 21 18C21 18.3978 21.158 18.7794 21.4393 19.0607C21.7206 19.342 22.1022 19.5 22.5 19.5ZM27 15C27.3978 15 27.7794 14.842 28.0607 14.5607C28.342 14.2794 28.5 13.8978 28.5 13.5C28.5 13.1022 28.342 12.7206 28.0607 12.4393C27.7794 12.158 27.3978 12 27 12C26.6022 12 26.2206 12.158 25.9393 12.4393C25.658 12.7206 25.5 13.1022 25.5 13.5C25.5 13.8978 25.658 14.2794 25.9393 14.5607C26.2206 14.842 26.6022 15 27 15ZM27 19.5C27.3978 19.5 27.7794 19.342 28.0607 19.0607C28.342 18.7794 28.5 18.3978 28.5 18C28.5 17.6022 28.342 17.2206 28.0607 16.9393C27.7794 16.658 27.3978 16.5 27 16.5C26.6022 16.5 26.2206 16.658 25.9393 16.9393C25.658 17.2206 25.5 17.6022 25.5 18C25.5 18.3978 25.658 18.7794 25.9393 19.0607C26.2206 19.342 26.6022 19.5 27 19.5ZM26.625 24C26.625 24.2984 26.5065 24.5845 26.2955 24.7955C26.0845 25.0065 25.7984 25.125 25.5 25.125H10.5C10.2016 25.125 9.91548 25.0065 9.7045 24.7955C9.49353 24.5845 9.375 24.2984 9.375 24C9.375 23.7016 9.49353 23.4155 9.7045 23.2045C9.91548 22.9935 10.2016 22.875 10.5 22.875H25.5C25.7984 22.875 26.0845 22.9935 26.2955 23.2045C26.5065 23.4155 26.625 23.7016 26.625 24Z" fill="#333333"/>
</g>
</svg>
