<svg width="36" height="36" viewBox="0 0 36 36" fill="none" xmlns="http://www.w3.org/2000/svg">
<g id="style=dark, icon=wrong" clip-path="url(#clip0_30_44)">
<path id="Vector" d="M18 0.494385C19.1822 0.494385 20.3278 0.903461 21.2432 1.65161C22.1585 2.39976 22.7872 3.44133 23.0225 4.59985L23.1035 5.00024H29.25C29.7141 5.00024 30.1591 5.18475 30.4873 5.51294C30.8154 5.84112 31 6.28617 31 6.75024V33.7502C30.9999 34.2143 30.8154 34.6594 30.4873 34.9875C30.1591 35.3157 29.7141 35.5002 29.25 35.5002H6.75C6.28592 35.5002 5.84087 35.3157 5.5127 34.9875C5.18456 34.6594 5.00006 34.2143 5 33.7502V6.75024L5.00879 6.57739C5.0485 6.17671 5.22552 5.80016 5.5127 5.51294C5.79988 5.22576 6.17651 5.0488 6.57715 5.00903L6.75 5.00024H12.8965L12.9775 4.59985C13.2128 3.44133 13.8415 2.39976 14.7568 1.65161C15.6722 0.903461 16.8178 0.494385 18 0.494385ZM7.375 33.1252H28.625V7.37524H23.125V10.7502H12.875V7.37524H7.375V33.1252ZM12.9375 21.8752H23.0625C23.3774 21.8752 23.6796 22.0002 23.9023 22.2229C24.125 22.4456 24.25 22.7479 24.25 23.0627C24.2499 23.3776 24.125 23.6799 23.9023 23.9026C23.6797 24.1252 23.3774 24.2502 23.0625 24.2502H12.9375C12.6226 24.2502 12.3203 24.1252 12.0977 23.9026C11.875 23.6799 11.7501 23.3776 11.75 23.0627L11.7559 22.9456C11.7828 22.6736 11.9028 22.4178 12.0977 22.2229C12.3204 22.0002 12.6226 21.8752 12.9375 21.8752ZM12.9375 16.2502H23.0625C23.3774 16.2502 23.6796 16.3752 23.9023 16.5979C24.125 16.8206 24.25 17.1229 24.25 17.4377C24.2499 17.7526 24.125 18.0549 23.9023 18.2776C23.6797 18.5002 23.3774 18.6252 23.0625 18.6252H12.9375L12.8203 18.6194C12.5484 18.5924 12.2926 18.4724 12.0977 18.2776C11.875 18.0549 11.7501 17.7526 11.75 17.4377L11.7559 17.3206C11.7828 17.0486 11.9028 16.7928 12.0977 16.5979C12.2926 16.403 12.5484 16.2831 12.8203 16.2561L12.9375 16.2502ZM18 2.87524C17.2707 2.87524 16.5714 3.16518 16.0557 3.68091C15.54 4.19662 15.25 4.89595 15.25 5.62524C15.2501 6.35451 15.54 7.05391 16.0557 7.56958C16.5714 8.08524 17.2707 8.37524 18 8.37524C18.7293 8.37524 19.4286 8.08524 19.9443 7.56958C20.46 7.05391 20.7499 6.35451 20.75 5.62524C20.75 4.89595 20.46 4.19662 19.9443 3.68091C19.4286 3.16518 18.7293 2.87524 18 2.87524Z" fill="#333333" stroke="black"/>
</g>
<defs>
<clipPath id="clip0_30_44">
<rect width="36" height="36" fill="white"/>
</clipPath>
</defs>
</svg>
