<svg width="55" height="55" viewBox="0 0 55 55" fill="none" xmlns="http://www.w3.org/2000/svg">
<path d="M27.5 27.5V34.9999V42.4999M2.74092 24.0375C2.5428 24.4174 2.46503 24.8306 2.51452 25.2404C2.564 25.6501 2.73921 26.0438 3.02458 26.3864C3.30995 26.7289 3.69665 27.0098 4.15034 27.2041C4.60403 27.3984 5.11067 27.5 5.62526 27.5H49.3747C49.8893 27.5 50.396 27.3984 50.8496 27.2041C51.3033 27.0098 51.69 26.7289 51.9754 26.3864C52.2608 26.0438 52.436 25.6501 52.4855 25.2404C52.535 24.8306 52.4572 24.4174 52.2591 24.0375L42.6436 5.57749C42.1691 4.66625 41.3682 3.88775 40.3416 3.34009C39.315 2.79243 38.1088 2.50012 36.8749 2.5H18.1251C16.8916 2.49991 15.6856 2.79186 14.6591 3.33905C13.6325 3.88624 12.8313 4.66422 12.3564 5.57499L2.74092 24.0375ZM15.0001 47.4999C15.0001 46.1738 15.6586 44.9021 16.8307 43.9644C18.0028 43.0267 19.5925 42.4999 21.2501 42.4999H33.7499C35.4075 42.4999 36.9972 43.0267 38.1693 43.9644C39.3414 44.9021 39.9998 46.1738 39.9998 47.4999V49.9999C39.9998 50.663 39.6706 51.2988 39.0846 51.7677C38.4985 52.2365 37.7037 52.4999 36.8749 52.4999H18.1251C17.2963 52.4999 16.5015 52.2365 15.9154 51.7677C15.3294 51.2988 15.0001 50.663 15.0001 49.9999V47.4999Z" stroke="#333333" stroke-width="5" stroke-linecap="round" stroke-linejoin="round"/>
</svg>
