<svg width="56" height="55" viewBox="0 0 56 55" fill="none" xmlns="http://www.w3.org/2000/svg">
<path d="M48.3831 19.3401L47.4677 18.7992L47.1851 18.6294C46.5033 18.1956 45.9289 17.5956 45.5095 16.8792C45.4645 16.8076 45.4245 16.7307 45.3444 16.5822C44.8052 15.6645 44.5434 14.5939 44.5942 13.514L44.6092 12.3869C44.6392 10.5837 44.6542 9.67674 44.4141 8.86527C44.2017 8.14327 43.8461 7.4778 43.3712 6.91349C42.836 6.27704 42.0932 5.82092 40.6052 4.91398L39.3697 4.1582C37.8892 3.25391 37.1464 2.80044 36.3586 2.62807C35.6626 2.47536 34.9439 2.48168 34.2504 2.64664C33.4676 2.83227 32.7348 3.299 31.2718 4.22715L31.2643 4.23245L30.3789 4.792C30.2389 4.88216 30.1663 4.92459 30.0963 4.96702C29.4011 5.37806 28.6258 5.60347 27.828 5.62999C27.748 5.63529 27.6654 5.63529 27.5029 5.63529L27.1777 5.63264C26.3797 5.60569 25.5993 5.37654 24.9019 4.96437C24.8319 4.92459 24.7644 4.87951 24.6243 4.78935L23.7315 4.22185C22.2584 3.28308 21.5207 2.81636 20.7329 2.62807C20.0368 2.46285 19.3154 2.45743 18.6171 2.61216C17.8268 2.78719 17.0865 3.24331 15.6035 4.15555L15.596 4.1582L14.3755 4.90868L14.363 4.91929C12.8925 5.82092 12.1547 6.27704 11.6245 6.91084C11.152 7.47408 10.7982 8.13765 10.5866 8.85731C10.3491 9.67143 10.3616 10.5784 10.3916 12.3923L10.4091 13.5166C10.4091 13.689 10.4166 13.7739 10.4141 13.8561C10.4011 14.8196 10.1409 15.7611 9.6613 16.5796C9.57877 16.7281 9.54126 16.8023 9.49874 16.8713C9.07706 17.593 8.49813 18.1969 7.81062 18.6321L7.53052 18.7992L6.62769 19.3295C5.12213 20.2126 4.36935 20.6555 3.82415 21.2866C3.33943 21.8431 2.97273 22.5032 2.74876 23.2225C2.49867 24.0366 2.49867 24.9462 2.50117 26.7707L2.50617 28.2637C2.50867 30.0749 2.51367 30.9792 2.76626 31.788C2.98931 32.5029 3.35334 33.1592 3.83416 33.7133C4.37936 34.3391 5.12463 34.7793 6.61768 35.6597L7.51301 36.1875C7.66557 36.2776 7.7431 36.3201 7.81562 36.3678C8.59935 36.866 9.2394 37.5822 9.6663 38.4389L9.83386 38.7571C10.2563 39.6028 10.4551 40.554 10.4091 41.5098L10.3916 42.5891C10.3616 44.4083 10.3491 45.3205 10.5891 46.1346C10.8017 46.8559 11.1569 47.5216 11.632 48.0864C12.1672 48.7229 12.9125 49.1763 14.398 50.0859L15.6335 50.8417C17.1165 51.746 17.8568 52.1994 18.6446 52.3718C19.3406 52.5245 20.0593 52.5182 20.7529 52.3533C21.5382 52.1676 22.2709 51.7009 23.739 50.7674L24.6243 50.2052L24.9069 50.0302C25.6022 49.6218 26.3775 49.3938 27.1752 49.3673L27.5004 49.3646H27.8255C28.6208 49.3911 29.4011 49.6218 30.1013 50.0329L30.3314 50.1787L31.2718 50.778C32.7473 51.7168 33.4826 52.1835 34.2704 52.3692C34.9661 52.5361 35.6875 52.5434 36.3861 52.3904C37.1739 52.2154 37.9192 51.7566 39.4022 50.8443L40.6402 50.0833C42.1107 49.1763 42.8485 48.7228 43.3787 48.0891C43.8539 47.5242 44.204 46.8612 44.4166 46.1426C44.6542 45.3338 44.6417 44.4348 44.6117 42.6474L44.5917 41.4806V41.1438C44.6034 40.1797 44.8628 39.2372 45.3419 38.4177L45.5045 38.126C45.9262 37.4042 46.5051 36.8004 47.1926 36.3651L47.4677 36.2034L47.4727 36.2007L48.3755 35.6704C49.8811 34.7846 50.6339 34.3444 51.1816 33.7133C51.6668 33.1564 52.0319 32.4934 52.2545 31.7774C52.5046 30.9686 52.5046 30.0617 52.4996 28.2584L52.4946 26.7362C52.4921 24.925 52.4896 24.018 52.237 23.2092C52.0129 22.4951 51.648 21.8397 51.1666 21.2866C50.6239 20.6608 49.8786 20.2206 48.3881 19.3428L48.3831 19.3401Z" stroke="#333333" stroke-width="5" stroke-linecap="round" stroke-linejoin="round"/>
</svg>
