<svg width="55" height="54" viewBox="0 0 55 54" fill="none" xmlns="http://www.w3.org/2000/svg">
<path d="M47.8829 18.8401L46.9676 18.2992L46.685 18.1294C46.0032 17.6956 45.4288 17.0956 45.0094 16.3792C44.9644 16.3076 44.9243 16.2307 44.8443 16.0822C44.3051 15.1645 44.0433 14.0939 44.094 13.014L44.109 11.8869C44.1391 10.0837 44.1541 9.17674 43.914 8.36527C43.7016 7.64327 43.346 6.9778 42.8711 6.41349C42.3359 5.77704 41.5931 5.32092 40.1051 4.41398L38.8696 3.6582C37.3891 2.75391 36.6463 2.30044 35.8585 2.12807C35.1625 1.97536 34.4438 1.98168 33.7502 2.14664C32.9674 2.33227 32.2347 2.799 30.7716 3.72715L30.7641 3.73245L29.8788 4.292C29.7388 4.38216 29.6662 4.42459 29.5962 4.46702C28.9009 4.87806 28.1257 5.10347 27.3279 5.12999C27.2478 5.13529 27.1653 5.13529 27.0027 5.13529L26.6776 5.13264C25.8796 5.10569 25.0992 4.87654 24.4018 4.46437C24.3318 4.42459 24.2642 4.37951 24.1242 4.28935L23.2314 3.72185C21.7583 2.78308 21.0205 2.31636 20.2328 2.12807C19.5366 1.96285 18.8152 1.95743 18.117 2.11216C17.3267 2.28719 16.5864 2.74331 15.1034 3.65555L15.0959 3.6582L13.8754 4.40868L13.8629 4.41929C12.3924 5.32092 11.6546 5.77704 11.1244 6.41084C10.6519 6.97408 10.2981 7.63765 10.0865 8.35731C9.84893 9.17143 9.86144 10.0784 9.89145 11.8923L9.90895 13.0166C9.90895 13.189 9.91646 13.2739 9.91396 13.3561C9.90101 14.3196 9.64076 15.2611 9.16118 16.0796C9.07865 16.2281 9.04114 16.3023 8.99862 16.3713C8.57694 17.093 7.99801 17.6969 7.3105 18.1321L7.03039 18.2992L6.12756 18.8295C4.62201 19.7126 3.86923 20.1555 3.32403 20.7866C2.8393 21.3431 2.47261 22.0032 2.24864 22.7225C1.99854 23.5366 1.99854 24.4462 2.00104 26.2707L2.00605 27.7637C2.00855 29.5749 2.01355 30.4792 2.26614 31.288C2.48919 32.0029 2.85322 32.6592 3.33403 33.2133C3.87924 33.8391 4.62451 34.2793 6.11756 35.1597L7.01289 35.6875C7.16544 35.7776 7.24297 35.8201 7.3155 35.8678C8.09922 36.366 8.73928 37.0822 9.16618 37.9389L9.33374 38.2571C9.75618 39.1028 9.95494 40.054 9.90895 41.0098L9.89145 42.0891C9.86144 43.9083 9.84893 44.8205 10.089 45.6346C10.3016 46.3559 10.6567 47.0216 11.1319 47.5864C11.6671 48.2229 12.4124 48.6763 13.8979 49.5859L15.1334 50.3417C16.6164 51.246 17.3567 51.6994 18.1445 51.8718C18.8405 52.0245 19.5592 52.0182 20.2528 51.8533C21.038 51.6676 21.7708 51.2009 23.2389 50.2674L24.1242 49.7052L24.4068 49.5302C25.102 49.1218 25.8773 48.8938 26.6751 48.8673L27.0002 48.8646H27.3254C28.1207 48.8911 28.9009 49.1218 29.6012 49.5329L29.8313 49.6787L30.7716 50.278C32.2472 51.2168 32.9824 51.6835 33.7702 51.8692C34.466 52.0361 35.1874 52.0434 35.886 51.8904C36.6738 51.7154 37.4191 51.2566 38.9021 50.3443L40.1401 49.5833C41.6106 48.6763 42.3484 48.2228 42.8786 47.5891C43.3538 47.0242 43.7039 46.3612 43.9165 45.6426C44.1541 44.8338 44.1415 43.9348 44.1115 42.1474L44.0915 40.9806V40.6438C44.1033 39.6797 44.3627 38.7372 44.8418 37.9177L45.0044 37.626C45.426 36.9042 46.005 36.3004 46.6925 35.8651L46.9676 35.7034L46.9726 35.7007L47.8754 35.1704C49.381 34.2846 50.1338 33.8444 50.6815 33.2133C51.1666 32.6564 51.5318 31.9934 51.7544 31.2774C52.0044 30.4686 52.0044 29.5617 51.9994 27.7584L51.9944 26.2362C51.9919 24.425 51.9894 23.518 51.7368 22.7092C51.5127 21.9951 51.1479 21.3397 50.6665 20.7866C50.1238 20.1608 49.3785 19.7206 47.8879 18.8428L47.8829 18.8401Z" stroke="#F9F9F9" stroke-width="4" stroke-linecap="round" stroke-linejoin="round"/>
</svg>
