<svg width="50" height="50" viewBox="0 0 50 50" fill="none" xmlns="http://www.w3.org/2000/svg">
<path d="M25 0.5C27.2858 0.5 29.5105 1.19746 31.3701 2.48926L31.7363 2.75488L45.1982 12.9404C46.4541 13.8915 47.4853 15.0965 48.2236 16.4717L48.3672 16.749C49.1127 18.2397 49.5004 19.8785 49.5 21.5391V38.6494C49.4999 41.3446 48.4797 43.9379 46.6475 45.9287L46.2695 46.3193C44.2001 48.3549 41.3918 49.4999 38.4619 49.5H11.5381C8.79127 49.4999 6.15134 48.4935 4.12695 46.6904L3.73047 46.3193C1.66132 44.2838 0.500087 41.5245 0.5 38.6494V21.5361L0.504883 21.2246C0.547286 19.7748 0.884863 18.348 1.49805 17.0283L1.63281 16.7471C2.33182 15.3501 3.32845 14.118 4.55371 13.1338L4.80176 12.9404L18.2637 2.75488C20.1938 1.2933 22.5622 0.5 25 0.5ZM25 5.17285C23.7051 5.17285 22.4436 5.56842 21.3877 6.30176L21.1787 6.45312L7.71777 16.6387C7.05144 17.1433 6.49514 17.7739 6.08203 18.4932L5.91406 18.8066C5.54234 19.5505 5.3267 20.3598 5.2793 21.1855L5.26953 21.5391V38.6475C5.2676 39.3565 5.3895 40.0601 5.62988 40.7266L5.74023 41.0098C6.05341 41.7589 6.51375 42.4394 7.09375 43.0127C7.67373 43.5859 8.36232 44.0409 9.12012 44.3516C9.78308 44.6234 10.4877 44.7803 11.2031 44.8164L11.5107 44.8242H13.9619V31.082C13.9619 29.3274 14.6258 27.6386 15.8193 26.3418L16.0654 26.0869C17.4136 24.7608 19.2443 24.0146 21.1543 24.0146H28.8457C30.6366 24.0146 32.3578 24.6707 33.6768 25.8457L33.9346 26.0869C35.2825 27.4129 36.0381 29.2103 36.0381 31.082V44.8242H38.4912C39.9808 44.8165 41.3553 44.2967 42.4277 43.4316L42.6387 43.2539C43.921 42.1237 44.7304 40.4802 44.7305 38.6494V21.5361L44.7207 21.1816C44.6796 20.4743 44.5156 19.7791 44.2354 19.127L44.085 18.8047C43.7134 18.0619 43.195 17.4017 42.5615 16.8623L42.2822 16.6387L28.8213 6.45312C27.725 5.62294 26.3814 5.17285 25 5.17285ZM21.1543 28.6904C20.5942 28.6904 20.0525 28.8816 19.6211 29.2295L19.4434 29.3877C18.9881 29.8356 18.7305 30.445 18.7305 31.082V44.8242H31.2695V31.082C31.2695 30.5245 31.0722 29.9879 30.7178 29.5625L30.5566 29.3877C30.1016 28.9401 29.4857 28.6904 28.8457 28.6904H21.1543Z" fill="#F9F9F9" stroke="#333333"/>
</svg>
